<svg xmlns="http://www.w3.org/2000/svg" viewBox="0 0 400 397.34"><defs><style>.cls-1{fill:#fff;}</style></defs><title>github-white</title><g id="Layer_2" data-name="Layer 2"><circle cx="199.83" cy="199.53" r="197.8"/></g><g id="Layer_1" data-name="Layer 1"><path class="cls-1" d="M373.17,100.92a199.13,199.13,0,0,0-72.78-72.79Q254.42,1.31,200,1.31T99.61,28.13a199.11,199.11,0,0,0-72.79,72.79Q0,146.88,0,201.3q0,65.37,38.15,117.58t98.56,72.26q7,1.31,10.42-1.82a10.18,10.18,0,0,0,3.38-7.81q0-.78-.13-14.06t-.13-23.17l-6,1a76.41,76.41,0,0,1-14.45.91,110.12,110.12,0,0,1-18.1-1.82,40.44,40.44,0,0,1-17.45-7.81,33,33,0,0,1-11.46-16l-2.6-6A65.07,65.07,0,0,0,72,301.31q-5.6-7.29-11.33-9.89l-1.82-1.31A19.12,19.12,0,0,1,55.47,287a14.29,14.29,0,0,1-2.34-3.65q-.78-1.83,1.3-3c1.39-.78,3.9-1.16,7.55-1.16l5.21.78q5.21,1,12.89,6.25A42,42,0,0,1,92.7,299.74q6,10.68,14.45,16.28t17.06,5.6a74.06,74.06,0,0,0,14.84-1.3,51.79,51.79,0,0,0,11.72-3.91q2.34-17.45,12.76-26.83a178.31,178.31,0,0,1-26.69-4.69,106.28,106.28,0,0,1-24.48-10.16,70.11,70.11,0,0,1-21-17.44q-8.33-10.42-13.67-27.34t-5.34-39.06q0-31.52,20.57-53.65-9.64-23.69,1.82-53.12,7.55-2.35,22.4,3.51t21.74,10q6.9,4.16,11.07,7a188.07,188.07,0,0,1,100,0l9.9-6.25a140.15,140.15,0,0,1,24-11.46q13.8-5.21,21.1-2.86,11.71,29.43,2.08,53.12,20.57,22.14,20.58,53.65,0,22.13-5.34,39.19t-13.8,27.34a72.8,72.8,0,0,1-21.1,17.32,106.48,106.48,0,0,1-24.48,10.16,178.13,178.13,0,0,1-26.69,4.69q13.54,11.71,13.54,37v54.94a10.37,10.37,0,0,0,3.26,7.81q3.25,3.12,10.28,1.82,60.42-20,98.57-72.26T400,201.3Q400,146.88,373.17,100.92Z" transform="translate(0 -1.31)"/></g></svg>
