<svg xmlns="http://www.w3.org/2000/svg" viewBox="0 0 392.27 392.38"><defs><style>.cls-1,.cls-4{fill:#fff;}.cls-2,.cls-5{fill:none;stroke:#000;}.cls-2,.cls-3,.cls-4,.cls-5{stroke-miterlimit:10;}.cls-2,.cls-3,.cls-4{stroke-width:3px;}.cls-3,.cls-4{stroke:#fff;}.cls-5{stroke-width:27px;}</style></defs><title>icon-insta-white</title><g id="Layer_6" data-name="Layer 6"><path d="M104.18,2.86" transform="translate(-3.75 -2.71)"/><line x1="0.11" y1="139.07" x2="0.11" y2="280.91"/><path class="cls-1" d="M108.43,2.86S3.86-5.28,3.86,96.62V299s-7.46,96,102.25,96H293.29S396,401.71,396,297.19V113.12c0-3.13,0-7.71-.22-13.24-.68-14-1.39-28.47-7-42.82a92.16,92.16,0,0,0-22-31.32c-22.61-20.5-52.34-23.06-70.37-23C183.79,2.86,108.43,2.86,108.43,2.86Z" transform="translate(-3.75 -2.71)"/></g><g id="Layer_5" data-name="Layer 5"><path class="cls-2" d="M138,66.8" transform="translate(-3.75 -2.71)"/><path class="cls-3" d="M53.88,184.08v64.37s-7.82,94.57,86.24,95,122.53,0,122.53,0S336,346,344.05,266.91c0,0,1.49-3.83,1.26-44.46s0-70.18,0-70.18V142.8s5.75-81.5-76.21-88.19A359.14,359.14,0,0,0,222,52.53l-59.64.14-7.31,0h-9.62a114.15,114.15,0,0,0-41.58,8.53c-6,2.69-22.26,10.18-35,27.34a78,78,0,0,0-9.58,16.88c-3.74,9.34-5.63,20.22-5.6,35.31,0,25-.25,58.3.14,58.29C54,199,54,196.39,53.88,184.08Z" transform="translate(-3.75 -2.71)"/><path class="cls-2" d="M165.33,77.59" transform="translate(-3.75 -2.71)"/></g><g id="Layer_4" data-name="Layer 4"><path class="cls-4" d="M135.61,80.28s-52,2.47-53.48,56.76,0,121.89,0,121.89-5.59,58.82,62.77,58.68L255,317.38c4.44.24,30.15,1.2,47-17.08,10.12-11,13.32-24.75,14.53-29.94a76.07,76.07,0,0,0,1.8-21.91V139.38s3.7-57.54-58.64-59.1S135.61,80.28,135.61,80.28Z" transform="translate(-3.75 -2.71)"/></g><g id="Layer_3" data-name="Layer 3"><circle class="cls-5" cx="196.18" cy="196.22" r="61.89"/></g><g id="Layer_2" data-name="Layer 2"><circle cx="274.82" cy="118.81" r="17.86"/><circle class="cls-1" cx="195.89" cy="196.33" r="47.39"/></g></svg>
