<?xml version="1.0" encoding="utf-8"?>
<!-- Generator: Adobe Illustrator 21.1.0, SVG Export Plug-In . SVG Version: 6.00 Build 0)  -->
<svg version="1.1" id="Layer_1" xmlns="http://www.w3.org/2000/svg" xmlns:xlink="http://www.w3.org/1999/xlink" x="0px" y="0px"
	 viewBox="0 0 400 400" style="enable-background:new 0 0 400 400;" xml:space="preserve">
<style type="text/css">
	.st0{fill:#FFFFFF;}
</style>
<g id="Layer_2">
	<rect x="36.5" y="44.2" width="326.9" height="311.6"/>
</g>
<g id="Capa_1">
	<g>
		<g id="post-linkedin">
			<path class="st0" d="M360,0H40C18,0,0,18,0,40v320c0,22,18,40,40,40h320c22,0,40-18,40-40V40C400,18,382,0,360,0z M120,340H60
				V160h60V340z M90,126c-20,0-36-16-36-36s16-36,36-36s36,16,36,36S110,126,90,126z M340,340h-60V234c0-16-14-30-30-30
				s-30,14-30,30v106H160V160h60v24c10-16,32-28,50-28c38,0,70,32,70,70V340z"/>
		</g>
	</g>
</g>
</svg>
