<svg id="Layer_1" data-name="Layer 1" xmlns="http://www.w3.org/2000/svg" viewBox="0 0 510 510"><defs><style>.cls-1{fill:#f8d857;}</style></defs><title>linkedin-yellow</title><g id="Layer_2" data-name="Layer 2"><rect class="cls-1" x="46.6" y="56.4" width="416.8" height="397.3"/></g><g id="Capa_1" data-name="Capa 1"><g id="post-linkedin"><path d="M459,0H51A51.21,51.21,0,0,0,0,51V459a51.21,51.21,0,0,0,51,51H459a51.21,51.21,0,0,0,51-51V51A51.21,51.21,0,0,0,459,0ZM153,433.5H76.5V204H153ZM114.8,160.6a45.9,45.9,0,1,1,45.9-45.9A45.71,45.71,0,0,1,114.8,160.6ZM433.5,433.5H357V298.4c0-20.4-17.9-38.2-38.2-38.2s-38.2,17.9-38.2,38.2V433.5H204V204h76.5v30.6c12.8-20.4,40.8-35.7,63.8-35.7,48.5,0,89.2,40.8,89.2,89.3Z" transform="translate(0 0)"/></g></g></svg>
